#Comment line ignore any data following # character 
#Hierarchical Translation and Rotation (.htr) file 
[Header]	
#Header keywords are followed by a single value 
FileType HTR		#Single word string
DataType HTRS		#Translation followed by rotation and scale data
FileVersion 1		#integer
NumSegments 84		#integer
NumFrames 2		#integer
DataFrameRate 30		#integer, data frame rate in this file
EulerRotationOrder ZYX
CalibrationUnits mm
RotationUnits Degrees
GlobalAxisofGravity Y
BoneLengthAxis Y
ScaleFactor 1.00
[SegmentNames&Hierarchy]
#CHILD	PARENT
MASTER GLOBAL
root MASTER
chest root
L_mid_tent01 root
R_mid_tent01 root
spine01 root
Bip01_Neck chest
L_humerus chest
R_humerus chest
weapon_bone chest
Bip01_Head Bip01_Neck
eye_left_bone Bip01_Head
eye_right_bone Bip01_Head
L_forearm L_humerus
L_front_hand L_forearm
L_weapon_bone L_forearm
L_front_hand01_01 L_front_hand
L_front_hand02_01 L_front_hand
L_front_hand03_01 L_front_hand
L_front_hand01_02 L_front_hand01_01
L_front_hand02_02 L_front_hand02_01
L_front_hand03_02 L_front_hand03_01
R_forearm R_humerus
R_front_hand R_forearm
R_weapon_bone R_forearm
R_front_hand01_01 R_front_hand
R_front_hand02_01 R_front_hand
R_front_hand03_01 R_front_hand
R_front_hand01_02 R_front_hand01_01
R_front_hand02_02 R_front_hand02_01
R_front_hand03_02 R_front_hand03_01
null_rope01_connect L_mid_tent01
Rope1_Seg01 null_rope01_connect
Rope1_Seg02 Rope1_Seg01
Rope1_Seg03 Rope1_Seg02
Rope1_Seg04 Rope1_Seg03
Rope1_Seg05 Rope1_Seg04
Rope1_Seg06 Rope1_Seg05
Rope1_Seg07 Rope1_Seg06
Rope1_Seg09 Rope1_Seg07
L_mid_hand01 Rope1_Seg09
L_mid_hand02 Rope1_Seg09
L_mid_hand03 Rope1_Seg09
null_rope02_connect R_mid_tent01
Rope2_Seg01 null_rope02_connect
Rope2_Seg02 Rope2_Seg01
Rope2_Seg03 Rope2_Seg02
Rope2_Seg04 Rope2_Seg03
Rope2_Seg05 Rope2_Seg04
Rope2_Seg06 Rope2_Seg05
Rope2_Seg07 Rope2_Seg06
Rope2_Seg09 Rope2_Seg07
R_mid_hand01 Rope2_Seg09
R_mid_hand02 Rope2_Seg09
R_mid_hand03 Rope2_Seg09
spine02 spine01
spine03 spine02
pelvis spine03
null_rope03_connect pelvis
null_rope04_connect pelvis
Rope3_Seg01 null_rope03_connect
Rope3_Seg02 Rope3_Seg01
Rope3_Seg03 Rope3_Seg02
Rope3_Seg04 Rope3_Seg03
Rope3_Seg05 Rope3_Seg04
Rope3_Seg06 Rope3_Seg05
Rope3_Seg07 Rope3_Seg06
Rope3_Seg08 Rope3_Seg07
Rope3_Seg09 Rope3_Seg08
R_rear_hand01 Rope3_Seg09
R_rear_hand02 Rope3_Seg09
R_rear_hand03 Rope3_Seg09
Rope4_Seg01 null_rope04_connect
Rope4_Seg02 Rope4_Seg01
Rope4_Seg03 Rope4_Seg02
Rope4_Seg04 Rope4_Seg03
Rope4_Seg05 Rope4_Seg04
Rope4_Seg06 Rope4_Seg05
Rope4_Seg07 Rope4_Seg06
Rope4_Seg08 Rope4_Seg07
Rope4_Seg09 Rope4_Seg08
L_rear_hand01 Rope4_Seg09
L_rear_hand02 Rope4_Seg09
L_rear_hand03 Rope4_Seg09
[BasePosition]
#SegmentName Tx, Ty, Tz, Rx, Ry, Rz, BoneLength
MASTER 0.000000 0.000000 0.000000 -90.000000 0.000000 0.000000 10.000000 
root 0.000000 0.000000 0.000000 0.000000 0.000000 0.000000 10.000000 
chest 0.000000 0.000000 0.000000 0.000000 0.000000 0.000000 10.000000 
L_mid_tent01 0.000000 0.000000 0.000000 0.000000 0.000000 0.000000 10.000000 
R_mid_tent01 0.000000 0.000000 0.000000 0.000000 0.000000 0.000000 10.000000 
spine01 0.000000 0.000000 0.000000 0.000000 0.000000 0.000000 10.000000 
Bip01_Neck 0.000000 0.000000 0.000000 0.000000 0.000000 0.000000 10.000000 
L_humerus 0.000000 0.000000 0.000000 0.000000 0.000000 0.000000 10.000000 
R_humerus 0.000000 0.000000 0.000000 0.000000 0.000000 0.000000 10.000000 
weapon_bone 0.000000 0.000000 0.000000 0.000000 0.000000 0.000000 10.000000 
Bip01_Head 0.000000 0.000000 0.000000 0.000000 0.000000 0.000000 10.000000 
eye_left_bone 0.000000 0.000000 0.000000 0.000000 0.000000 0.000000 10.000000 
eye_right_bone 0.000000 0.000000 0.000000 0.000000 0.000000 0.000000 10.000000 
L_forearm 0.000000 0.000000 0.000000 0.000000 0.000000 0.000000 10.000000 
L_front_hand 0.000000 0.000000 0.000000 0.000000 0.000000 0.000000 10.000000 
L_weapon_bone 0.000000 0.000000 0.000000 0.000000 0.000000 0.000000 10.000000 
L_front_hand01_01 0.000000 0.000000 0.000000 0.000000 0.000000 0.000000 10.000000 
L_front_hand02_01 0.000000 0.000000 0.000000 0.000000 0.000000 0.000000 10.000000 
L_front_hand03_01 0.000000 0.000000 0.000000 0.000000 0.000000 0.000000 10.000000 
L_front_hand01_02 0.000000 0.000000 0.000000 0.000000 0.000000 0.000000 10.000000 
L_front_hand02_02 0.000000 0.000000 0.000000 0.000000 0.000000 0.000000 10.000000 
L_front_hand03_02 0.000000 0.000000 0.000000 0.000000 0.000000 0.000000 10.000000 
R_forearm 0.000000 0.000000 0.000000 0.000000 0.000000 0.000000 10.000000 
R_front_hand 0.000000 0.000000 0.000000 0.000000 0.000000 0.000000 10.000000 
R_weapon_bone 0.000000 0.000000 0.000000 0.000000 0.000000 0.000000 10.000000 
R_front_hand01_01 0.000000 0.000000 0.000000 0.000000 0.000000 0.000000 10.000000 
R_front_hand02_01 0.000000 0.000000 0.000000 0.000000 0.000000 0.000000 10.000000 
R_front_hand03_01 0.000000 0.000000 0.000000 0.000000 0.000000 0.000000 10.000000 
R_front_hand01_02 0.000000 0.000000 0.000000 0.000000 0.000000 0.000000 10.000000 
R_front_hand02_02 0.000000 0.000000 0.000000 0.000000 0.000000 0.000000 10.000000 
R_front_hand03_02 0.000000 0.000000 0.000000 0.000000 0.000000 0.000000 10.000000 
null_rope01_connect 0.000000 0.000000 0.000000 0.000000 0.000000 0.000000 10.000000 
Rope1_Seg01 0.000000 0.000000 0.000000 0.000000 0.000000 0.000000 10.000000 
Rope1_Seg02 0.000000 0.000000 0.000000 0.000000 0.000000 0.000000 10.000000 
Rope1_Seg03 0.000000 0.000000 0.000000 0.000000 0.000000 0.000000 10.000000 
Rope1_Seg04 0.000000 0.000000 0.000000 0.000000 0.000000 0.000000 10.000000 
Rope1_Seg05 0.000000 0.000000 0.000000 0.000000 0.000000 0.000000 10.000000 
Rope1_Seg06 0.000000 0.000000 0.000000 0.000000 0.000000 0.000000 10.000000 
Rope1_Seg07 0.000000 0.000000 0.000000 0.000000 0.000000 0.000000 10.000000 
Rope1_Seg09 0.000000 0.000000 0.000000 0.000000 0.000000 0.000000 10.000000 
L_mid_hand01 0.000000 0.000000 0.000000 0.000000 0.000000 0.000000 10.000000 
L_mid_hand02 0.000000 0.000000 0.000000 0.000000 0.000000 0.000000 10.000000 
L_mid_hand03 0.000000 0.000000 0.000000 0.000000 0.000000 0.000000 10.000000 
null_rope02_connect 0.000000 0.000000 0.000000 0.000000 0.000000 0.000000 10.000000 
Rope2_Seg01 0.000000 0.000000 0.000000 0.000000 0.000000 0.000000 10.000000 
Rope2_Seg02 0.000000 0.000000 0.000000 0.000000 0.000000 0.000000 10.000000 
Rope2_Seg03 0.000000 0.000000 0.000000 0.000000 0.000000 0.000000 10.000000 
Rope2_Seg04 0.000000 0.000000 0.000000 0.000000 0.000000 0.000000 10.000000 
Rope2_Seg05 0.000000 0.000000 0.000000 0.000000 0.000000 0.000000 10.000000 
Rope2_Seg06 0.000000 0.000000 0.000000 0.000000 0.000000 0.000000 10.000000 
Rope2_Seg07 0.000000 0.000000 0.000000 0.000000 0.000000 0.000000 10.000000 
Rope2_Seg09 0.000000 0.000000 0.000000 0.000000 0.000000 0.000000 10.000000 
R_mid_hand01 0.000000 0.000000 0.000000 0.000000 0.000000 0.000000 10.000000 
R_mid_hand02 0.000000 0.000000 0.000000 0.000000 0.000000 0.000000 10.000000 
R_mid_hand03 0.000000 0.000000 0.000000 0.000000 0.000000 0.000000 10.000000 
spine02 0.000000 0.000000 0.000000 0.000000 0.000000 0.000000 10.000000 
spine03 0.000000 0.000000 0.000000 0.000000 0.000000 0.000000 10.000000 
pelvis 0.000000 0.000000 0.000000 0.000000 0.000000 0.000000 10.000000 
null_rope03_connect 0.000000 0.000000 0.000000 0.000000 0.000000 0.000000 10.000000 
null_rope04_connect 0.000000 0.000000 0.000000 0.000000 0.000000 0.000000 10.000000 
Rope3_Seg01 0.000000 0.000000 0.000000 0.000000 0.000000 0.000000 10.000000 
Rope3_Seg02 0.000000 0.000000 0.000000 0.000000 0.000000 0.000000 10.000000 
Rope3_Seg03 0.000000 0.000000 0.000000 0.000000 0.000000 0.000000 10.000000 
Rope3_Seg04 0.000000 0.000000 0.000000 0.000000 0.000000 0.000000 10.000000 
Rope3_Seg05 0.000000 0.000000 0.000000 0.000000 0.000000 0.000000 10.000000 
Rope3_Seg06 0.000000 0.000000 0.000000 0.000000 0.000000 0.000000 10.000000 
Rope3_Seg07 0.000000 0.000000 0.000000 0.000000 0.000000 0.000000 10.000000 
Rope3_Seg08 0.000000 0.000000 0.000000 0.000000 0.000000 0.000000 10.000000 
Rope3_Seg09 0.000000 0.000000 0.000000 0.000000 0.000000 0.000000 10.000000 
R_rear_hand01 0.000000 0.000000 0.000000 0.000000 0.000000 0.000000 10.000000 
R_rear_hand02 0.000000 0.000000 0.000000 0.000000 0.000000 0.000000 10.000000 
R_rear_hand03 0.000000 0.000000 0.000000 0.000000 0.000000 0.000000 10.000000 
Rope4_Seg01 0.000000 0.000000 0.000000 0.000000 0.000000 0.000000 10.000000 
Rope4_Seg02 0.000000 0.000000 0.000000 0.000000 0.000000 0.000000 10.000000 
Rope4_Seg03 0.000000 0.000000 0.000000 0.000000 0.000000 0.000000 10.000000 
Rope4_Seg04 0.000000 0.000000 0.000000 0.000000 0.000000 0.000000 10.000000 
Rope4_Seg05 0.000000 0.000000 0.000000 0.000000 0.000000 0.000000 10.000000 
Rope4_Seg06 0.000000 0.000000 0.000000 0.000000 0.000000 0.000000 10.000000 
Rope4_Seg07 0.000000 0.000000 0.000000 0.000000 0.000000 0.000000 10.000000 
Rope4_Seg08 0.000000 0.000000 0.000000 0.000000 0.000000 0.000000 10.000000 
Rope4_Seg09 0.000000 0.000000 0.000000 0.000000 0.000000 0.000000 10.000000 
L_rear_hand01 0.000000 0.000000 0.000000 0.000000 0.000000 0.000000 10.000000 
L_rear_hand02 0.000000 0.000000 0.000000 0.000000 0.000000 0.000000 10.000000 
L_rear_hand03 0.000000 0.000000 0.000000 0.000000 0.000000 0.000000 10.000000 
#Beginning of Data. Separated by tabs
#Fr	Tx	Ty	Tz	Rx	Ry	Rz	SF
[MASTER]
34 -0.000620 4124.998047 0.000000 0.001660 0.001660 0.001660 4124.998047
35 -0.000639 4249.998047 0.000000 0.001660 0.001660 0.001660 4249.998047
[root]
34 -28.472103 -53.781734 1507.777222 -91.728889 -11.584497 -89.471619 1509.004761
35 -26.827868 -53.888855 1507.793213 -91.728889 -11.584499 -89.471611 1508.994385
[chest]
34 -84.512650 -34.090519 0.000000 -2.173481 -0.030855 167.930054 91.129311
35 -84.512650 -34.090519 0.000000 -2.173846 -0.026036 168.011200 91.129311
[L_mid_tent01]
34 27.299170 22.179258 -249.918671 -20.517403 10.093014 13.721604 252.381668
35 27.299173 22.179258 -249.918671 -20.537004 10.390530 13.608384 252.381668
[R_mid_tent01]
34 23.228794 24.509907 226.238495 -165.461136 -14.434695 25.015160 228.744751
35 23.228794 24.509907 226.238495 -165.424500 -14.980498 24.868603 228.744751
[spine01]
34 -0.361383 -0.195265 0.000000 0.001948 0.001309 22.192953 0.410763
35 -0.361383 -0.195265 0.000000 0.001948 0.001310 22.165234 0.410763
[Bip01_Neck]
34 165.484543 71.581718 0.000119 176.643677 -1.657967 43.431911 180.302734
35 165.484543 71.581718 0.000119 176.643677 -1.657967 43.431911 180.302734
[L_humerus]
34 -13.983130 -135.272980 -120.471481 -178.860596 64.955025 -88.216530 181.680161
35 -13.983130 -135.272980 -120.471481 -177.514160 72.083084 -86.964500 181.680161
[R_humerus]
34 -13.983309 -135.273102 125.287651 170.341812 -64.290428 -74.162811 184.909012
35 -13.983309 -135.273102 125.287651 164.499985 -70.632866 -68.408234 184.909012
[weapon_bone]
34 235.964890 -300.705902 0.000000 0.000000 -89.951546 -128.212341 382.234833
35 235.964890 -300.705902 0.000000 0.000000 -89.951546 -128.212341 382.234833
[Bip01_Head]
34 213.354477 185.964417 8.559787 4.440325 -0.571875 -43.897560 283.153961
35 213.338608 186.008896 7.986831 4.440430 -0.439754 -43.897636 283.154510
[eye_left_bone]
34 -24.626970 125.451866 -64.772606 0.000000 -90.000000 -99.840431 143.318359
35 -24.626970 125.451866 -64.772606 0.000000 -90.000000 -99.840431 143.318359
[eye_right_bone]
34 -24.626970 125.451866 64.327362 0.000000 -89.965736 80.156380 143.117676
35 -24.626970 125.451866 64.327362 0.000000 -89.965736 80.156380 143.117676
[L_forearm]
34 322.776093 0.000000 -0.000119 0.000402 -0.002313 -109.730682 322.776093
35 322.776093 0.000000 -0.000119 0.000401 -0.002313 -109.650063 322.776093
[L_front_hand]
34 241.149185 -0.042021 -3.300071 -178.667953 -1.835447 -27.422350 241.171753
35 241.149185 -0.042021 -3.300071 -178.667953 -1.835447 -27.422350 241.171753
[L_weapon_bone]
34 156.183838 0.000000 0.000000 0.000014 0.000007 0.000001 156.183838
35 156.183838 0.000000 0.000000 0.000014 0.000007 0.000001 156.183838
[L_front_hand01_01]
34 86.095154 20.947098 -0.655860 -0.366594 -0.477154 75.385574 88.609184
35 86.095154 20.947098 -0.655860 -0.366594 -0.477154 75.385574 88.609184
[L_front_hand02_01]
34 86.935165 -11.437475 24.513514 154.399796 -59.883835 -61.369587 91.046425
35 86.935165 -11.437475 24.513514 154.399796 -59.883835 -61.369587 91.046425
[L_front_hand03_01]
34 86.637497 -14.123976 -20.424902 -153.913849 58.118122 -62.702866 90.126129
35 86.637497 -14.123976 -20.424902 -153.913849 58.118122 -62.702866 90.126129
[L_front_hand01_02]
34 71.020905 -0.000179 0.000030 0.000331 -0.002324 -106.206635 71.020905
35 71.020905 -0.000179 0.000030 0.000332 -0.002324 -106.240639 71.020905
[L_front_hand02_02]
34 71.020927 -0.000119 0.000060 0.000331 -0.002324 -106.206635 71.020927
35 71.020927 -0.000119 0.000060 0.000332 -0.002324 -106.240639 71.020927
[L_front_hand03_02]
34 71.020905 -0.000060 0.000060 0.000331 -0.002324 -106.206635 71.020905
35 71.020905 -0.000060 0.000060 0.000332 -0.002324 -106.240639 71.020905
[R_forearm]
34 322.776428 -0.000060 0.000030 0.201923 0.065714 -108.378181 322.776428
35 322.776428 -0.000060 0.000030 0.201970 0.065567 -108.294846 322.776428
[R_front_hand]
34 238.847015 -0.006795 2.210259 -2.635298 -10.645461 -26.312506 238.857239
35 238.847015 -0.006795 2.210259 -2.635298 -10.645461 -26.312506 238.857239
[R_weapon_bone]
34 155.664093 0.002503 -0.000030 0.003487 0.001180 -90.988930 155.664078
35 155.664093 0.002503 -0.000030 0.003487 0.001180 -90.988930 155.664078
[R_front_hand01_01]
34 87.624611 14.231146 22.918642 -154.633499 -59.950619 61.746044 91.683487
35 87.624611 14.231146 22.918642 -154.633499 -59.950619 61.746044 91.683487
[R_front_hand02_01]
34 89.356956 14.367283 -19.491137 154.602661 58.302849 63.744389 92.579636
35 89.356956 14.367283 -19.491137 154.602661 58.302849 63.744389 92.579636
[R_front_hand03_01]
34 87.286232 -22.307278 -0.143439 0.162155 -0.423168 -75.767921 90.091743
35 87.286232 -22.307278 -0.143439 0.162155 -0.423168 -75.767921 90.091743
[R_front_hand01_02]
34 71.020905 0.000060 0.000119 0.002323 -0.000334 106.381714 71.020905
35 71.020905 0.000060 0.000119 0.002323 -0.000334 106.381714 71.020905
[R_front_hand02_02]
34 71.020844 -0.000030 -0.000119 0.002323 -0.000334 106.381714 71.020836
35 71.020844 -0.000030 -0.000119 0.002323 -0.000334 106.381714 71.020836
[R_front_hand03_02]
34 71.020905 0.000000 0.000030 0.002323 -0.000334 106.381714 71.020905
35 71.020905 0.000000 0.000030 0.002323 -0.000334 106.381714 71.020905
[null_rope01_connect]
34 328.732483 0.000000 -0.000238 -158.881424 -65.727318 -114.920692 328.732483
35 328.732483 0.000000 -0.000238 -158.183914 -65.592873 -115.555748 328.732483
[Rope1_Seg01]
34 -0.000031 -0.000258 0.000027 82.503021 3.730893 -99.551369 0.000262
35 -0.000032 -0.000265 0.000023 82.695564 4.011804 -99.215439 0.000268
[Rope1_Seg02]
34 139.999863 -0.000179 0.000000 3.958619 5.653725 -1.517170 139.999863
35 139.999863 -0.000179 0.000000 4.015263 5.634684 -1.376305 139.999863
[Rope1_Seg03]
34 139.999924 0.000060 -0.000060 -0.995260 3.649648 -5.321755 139.999924
35 139.999924 0.000060 -0.000060 -0.639626 3.870308 -5.049333 139.999924
[Rope1_Seg04]
34 139.999924 -0.000060 -0.000119 6.312119 7.784151 1.911032 139.999924
35 139.999924 -0.000060 -0.000119 5.903357 7.278259 1.811579 139.999924
[Rope1_Seg05]
34 139.999832 0.000119 -0.000060 9.423041 7.348784 7.718583 139.999832
35 139.999832 0.000119 -0.000060 8.952682 6.583712 7.612903 139.999832
[Rope1_Seg06]
34 139.999954 0.000119 -0.000060 2.875173 2.933655 1.871806 139.999954
35 139.999954 0.000119 -0.000060 2.863850 2.723786 1.960218 139.999954
[Rope1_Seg07]
34 139.999985 0.000060 0.000000 1.493323 1.687084 0.859640 139.999985
35 139.999985 0.000060 0.000000 1.503110 1.577494 0.912750 139.999985
[Rope1_Seg09]
34 121.602913 0.000119 -0.000089 -89.793175 -1.359789 0.847147 121.602913
35 121.602913 0.000119 -0.000089 -89.793175 -1.359789 0.847147 121.602913
[L_mid_hand01]
34 103.859421 1.038730 8.195221 130.544373 -67.584534 -38.866943 104.187431
35 103.859421 1.038730 8.195221 130.544373 -67.584534 -38.866943 104.187431
[L_mid_hand02]
34 105.572853 -4.139662 -10.864139 -168.923172 43.409309 -73.498886 106.211075
35 105.572853 -4.139662 -10.864139 -168.923172 43.409309 -73.498886 106.211075
[L_mid_hand03]
34 104.641464 17.579376 -3.913581 -6.012627 17.808174 74.893669 106.179977
35 104.641464 17.579376 -3.913581 -6.012627 17.808174 74.893669 106.179977
[null_rope02_connect]
34 328.732849 0.000179 -0.000119 -146.643173 70.961296 -41.183254 328.732849
35 328.732849 0.000179 -0.000119 -145.527969 70.533691 -40.130093 328.732849
[Rope2_Seg01]
34 0.000108 -0.000232 0.000000 -36.038578 -1.447562 -76.658234 0.000256
35 0.000109 -0.000242 0.000000 -35.657135 -0.729562 -77.330185 0.000266
[Rope2_Seg02]
34 139.999741 -0.000060 -0.000119 -0.864808 5.066641 -3.017244 139.999756
35 139.999741 -0.000060 -0.000119 -0.287837 4.468986 -2.217179 139.999756
[Rope2_Seg03]
34 140.000107 0.000030 0.000000 2.710088 1.789181 2.037988 140.000107
35 140.000107 0.000030 0.000000 3.321657 1.660223 2.712212 140.000107
[Rope2_Seg04]
34 139.999802 0.000000 -0.000060 -4.578191 5.365097 -7.993418 139.999802
35 139.999802 0.000000 -0.000060 -4.729038 4.404103 -7.660505 139.999802
[Rope2_Seg05]
34 139.999985 -0.000060 0.000119 -4.478081 5.810673 -9.786672 139.999985
35 139.999985 -0.000060 0.000119 -5.116483 4.951155 -10.157468 139.999985
[Rope2_Seg06]
34 139.999893 -0.000030 -0.000119 -1.172705 2.701306 -3.623279 139.999893
35 139.999893 -0.000030 -0.000119 -1.401624 2.454342 -3.813654 139.999893
[Rope2_Seg07]
34 139.999893 0.000060 -0.000060 -0.593082 1.667671 -2.114200 139.999893
35 139.999893 0.000060 -0.000060 -0.715870 1.536107 -2.228927 139.999893
[Rope2_Seg09]
34 121.338966 0.000089 -0.000060 33.793236 -1.359788 -0.847141 121.338966
35 121.338966 0.000089 -0.000060 33.793236 -1.359788 -0.847141 121.338966
[R_mid_hand01]
34 104.680779 11.144459 -10.335981 -16.212063 45.237247 70.462852 105.778534
35 104.680779 11.144459 -10.335981 -16.212063 45.237247 70.462852 105.778534
[R_mid_hand02]
34 104.070427 2.443552 8.231699 49.067368 -67.749771 39.286453 104.424065
35 104.070427 2.443552 8.231699 49.067368 -67.749771 39.286453 104.424065
[R_mid_hand03]
34 106.028137 -11.221827 -5.996406 -177.101105 15.551026 -76.585571 106.788818
35 106.028137 -11.221827 -5.996406 -177.101105 15.551026 -76.585571 106.788818
[spine02]
34 129.756927 0.001550 0.000119 0.389093 -4.041821 -13.366076 129.756927
35 129.756927 0.001550 0.000119 0.381701 -4.042590 -13.249553 129.756927
[spine03]
34 78.613914 0.081635 -4.899021 1.913843 3.823783 16.755245 78.766457
35 78.613914 0.081635 -4.899021 1.908422 3.827088 16.683422 78.766457
[pelvis]
34 169.435242 0.051022 0.000000 -0.061343 -0.179928 14.646231 169.435257
35 169.435242 0.051022 0.000000 -0.061143 -0.179997 14.519097 169.435257
[null_rope03_connect]
34 -1.257226 -2.466202 137.391083 154.879700 -89.411163 -93.514023 137.418976
35 -1.257226 -2.466202 137.391083 155.349533 -89.405212 -93.862183 137.418976
[null_rope04_connect]
34 -1.259640 -2.480268 -137.844437 154.879700 -89.411163 -93.514023 137.872513
35 -1.259640 -2.480268 -137.844437 155.349533 -89.405212 -93.862183 137.872513
[Rope3_Seg01]
34 0.000010 0.000038 -0.000114 8.119768 34.018787 -98.354568 0.000121
35 0.000010 0.000038 -0.000114 9.184729 33.842564 -96.599472 0.000121
[Rope3_Seg02]
34 139.999924 -0.000119 0.000060 0.553788 -3.811067 3.492256 139.999924
35 139.999924 -0.000119 0.000060 0.426886 -3.593544 3.328748 139.999924
[Rope3_Seg03]
34 139.999924 -0.000119 0.000119 0.536644 -5.270783 4.954264 139.999924
35 139.999924 -0.000119 0.000119 0.384515 -4.880885 4.614979 139.999924
[Rope3_Seg04]
34 139.999924 0.000119 0.000000 -0.190549 -8.912603 11.001435 139.999924
35 139.999924 0.000119 0.000000 -0.309664 -7.388689 10.035633 139.999924
[Rope3_Seg05]
34 139.999924 -0.000238 0.000060 -0.605891 -10.387289 8.422199 139.999924
35 139.999924 -0.000238 0.000060 -0.725017 -10.050061 7.687152 139.999924
[Rope3_Seg06]
34 139.999893 -0.000119 -0.000060 0.343136 -1.175985 -7.188112 139.999893
35 139.999893 -0.000119 -0.000060 0.613840 -3.806803 -6.926065 139.999893
[Rope3_Seg07]
34 139.999771 0.000060 -0.000119 0.518976 -1.387973 -2.275028 139.999771
35 139.999771 0.000060 -0.000119 0.667264 -2.487669 -2.397418 139.999771
[Rope3_Seg08]
34 139.999985 -0.000060 0.000000 0.598557 -1.037131 -0.918767 139.999985
35 139.999985 -0.000060 0.000000 0.702833 -1.629624 -0.958034 139.999985
[Rope3_Seg09]
34 90.185997 -0.000179 -0.000060 89.793228 -1.359877 -0.847183 90.185997
35 90.185997 -0.000179 -0.000060 89.793228 -1.359877 -0.847183 90.185997
[R_rear_hand01]
34 103.366196 -6.073594 -10.757982 -177.714203 24.565960 -73.910950 104.101845
35 103.366196 -6.073594 -10.757982 -177.714203 24.565960 -73.910950 104.101845
[R_rear_hand02]
34 100.509819 12.039542 -7.992327 -12.874829 36.868488 72.167213 101.543350
35 100.509819 12.039542 -7.992327 -12.874829 36.868488 72.167213 101.543350
[R_rear_hand03]
34 101.539970 5.215704 5.435467 71.484581 -71.816628 21.513813 101.819031
35 101.539970 5.215704 5.435467 71.484581 -71.816628 21.513813 101.819031
[Rope4_Seg01]
34 0.000010 0.000038 -0.000114 -92.685562 28.727930 -85.865471 0.000121
35 0.000010 0.000038 -0.000114 -92.740913 28.252247 -85.875359 0.000121
[Rope4_Seg02]
34 139.999985 0.000060 0.000119 -0.174349 -0.105633 -2.243677 139.999985
35 139.999985 0.000060 0.000119 -0.124841 -0.138727 -1.734199 139.999985
[Rope4_Seg03]
34 139.999924 0.000000 -0.000238 -0.209393 -0.081728 -2.322834 139.999924
35 139.999924 0.000000 -0.000238 -0.139880 -0.124141 -1.758934 139.999924
[Rope4_Seg04]
34 139.999985 0.000000 0.000119 0.041554 0.570398 0.066143 139.999985
35 139.999985 0.000000 0.000119 0.188794 0.400331 1.184351 139.999985
[Rope4_Seg05]
34 139.999802 -0.000060 -0.000119 -0.731291 -0.910007 -6.247302 139.999802
35 139.999802 -0.000060 -0.000119 -0.705834 -0.859950 -6.379054 139.999802
[Rope4_Seg06]
34 139.999924 0.000000 0.000060 -1.560452 -1.718311 -8.967352 139.999924
35 139.999924 0.000000 0.000060 -1.709026 -1.415510 -9.783463 139.999924
[Rope4_Seg07]
34 139.999802 0.000000 0.000000 -1.054517 -0.694017 -4.592955 139.999802
35 139.999802 0.000000 0.000000 -1.090598 -0.518773 -4.747833 139.999802
[Rope4_Seg08]
34 139.999924 0.000000 0.000119 -2.224359 -0.338349 -2.603822 139.999924
35 139.999924 0.000000 0.000119 -2.229147 -0.232986 -2.650382 139.999924
[Rope4_Seg09]
34 90.185791 0.000060 0.000060 -135.617828 2.228885 0.850567 90.185791
35 90.185791 0.000060 0.000060 -135.617828 2.228885 0.850567 90.185791
[L_rear_hand01]
34 101.696655 -8.392275 -7.654577 -12.874829 -36.868488 107.832764 102.329041
35 101.696655 -8.392275 -7.654577 -12.874829 -36.868488 107.832764 102.329041
[L_rear_hand02]
34 102.726799 -1.568258 5.773216 71.484581 71.816628 158.486160 102.900848
35 102.726799 -1.568258 5.773216 71.484581 71.816628 158.486160 102.900848
[L_rear_hand03]
34 104.552910 9.721220 -10.420293 -177.714203 -24.565960 -106.089035 105.519653
35 104.552910 9.721220 -10.420293 -177.714203 -24.565960 -106.089035 105.519653
